ISO-10303-21;
HEADER;
/* Generated by software containing ST-Developer
 * from STEP Tools, Inc. (www.steptools.com) 
 */

FILE_DESCRIPTION(
/* description */ (''),
/* implementation_level */ '2;1');

FILE_NAME(
/* name */ 
'C:\\Users\\Nathann\\ClawdDrive\\Objet3D\\RunningRobot\\PartURDF\\CamL
eftNCS.stp',
/* time_stamp */ '2026-06-19T10:43:03+02:00',
/* author */ ('Nathann'),
/* organization */ (''),
/* preprocessor_version */ 'ST-DEVELOPER v19',
/* originating_system */ 'Autodesk Inventor 2023',
/* authorisation */ '');

FILE_SCHEMA (('AUTOMOTIVE_DESIGN { 1 0 10303 214 3 1 1 }'));
ENDSEC;

DATA;
#10=MECHANICAL_DESIGN_GEOMETRIC_PRESENTATION_REPRESENTATION('',(#418,#419,
#420,#421,#422,#423,#424,#425,#426,#427,#428,#429,#430,#431,#432,#433,#434,
#435,#436,#437,#438,#439),#794);
#11=SHAPE_REPRESENTATION_RELATIONSHIP('SRR','None',#801,#12);
#12=ADVANCED_BREP_SHAPE_REPRESENTATION('',(#13),#793);
#13=MANIFOLD_SOLID_BREP('Solid1',#461);
#14=FACE_BOUND('',#83,.T.);
#15=FACE_BOUND('',#84,.T.);
#16=FACE_BOUND('',#85,.T.);
#17=FACE_BOUND('',#86,.T.);
#18=FACE_BOUND('',#87,.T.);
#19=FACE_BOUND('',#88,.T.);
#20=FACE_BOUND('',#89,.T.);
#21=FACE_BOUND('',#90,.T.);
#22=FACE_BOUND('',#91,.T.);
#23=FACE_BOUND('',#92,.T.);
#24=FACE_BOUND('',#93,.T.);
#25=FACE_BOUND('',#94,.T.);
#26=FACE_BOUND('',#95,.T.);
#27=FACE_BOUND('',#97,.T.);
#28=FACE_BOUND('',#98,.T.);
#29=FACE_BOUND('',#99,.T.);
#30=FACE_BOUND('',#100,.T.);
#31=FACE_BOUND('',#101,.T.);
#32=FACE_BOUND('',#102,.T.);
#33=FACE_BOUND('',#103,.T.);
#34=FACE_BOUND('',#104,.T.);
#35=FACE_BOUND('',#105,.T.);
#36=FACE_BOUND('',#106,.T.);
#37=FACE_BOUND('',#107,.T.);
#38=FACE_BOUND('',#108,.T.);
#39=FACE_BOUND('',#109,.T.);
#40=PLANE('',#526);
#41=PLANE('',#530);
#42=PLANE('',#531);
#43=PLANE('',#534);
#44=FACE_OUTER_BOUND('',#65,.T.);
#45=FACE_OUTER_BOUND('',#66,.T.);
#46=FACE_OUTER_BOUND('',#67,.T.);
#47=FACE_OUTER_BOUND('',#68,.T.);
#48=FACE_OUTER_BOUND('',#69,.T.);
#49=FACE_OUTER_BOUND('',#70,.T.);
#50=FACE_OUTER_BOUND('',#71,.T.);
#51=FACE_OUTER_BOUND('',#72,.T.);
#52=FACE_OUTER_BOUND('',#73,.T.);
#53=FACE_OUTER_BOUND('',#74,.T.);
#54=FACE_OUTER_BOUND('',#75,.T.);
#55=FACE_OUTER_BOUND('',#76,.T.);
#56=FACE_OUTER_BOUND('',#77,.T.);
#57=FACE_OUTER_BOUND('',#78,.T.);
#58=FACE_OUTER_BOUND('',#79,.T.);
#59=FACE_OUTER_BOUND('',#80,.T.);
#60=FACE_OUTER_BOUND('',#81,.T.);
#61=FACE_OUTER_BOUND('',#82,.T.);
#62=FACE_OUTER_BOUND('',#96,.T.);
#63=FACE_OUTER_BOUND('',#110,.T.);
#64=FACE_OUTER_BOUND('',#111,.T.);
#65=EDGE_LOOP('',(#287,#288,#289,#290));
#66=EDGE_LOOP('',(#291,#292,#293,#294));
#67=EDGE_LOOP('',(#295,#296,#297,#298));
#68=EDGE_LOOP('',(#299,#300,#301,#302));
#69=EDGE_LOOP('',(#303,#304,#305,#306));
#70=EDGE_LOOP('',(#307,#308,#309,#310));
#71=EDGE_LOOP('',(#311,#312,#313,#314));
#72=EDGE_LOOP('',(#315,#316,#317,#318));
#73=EDGE_LOOP('',(#319,#320,#321,#322));
#74=EDGE_LOOP('',(#323,#324,#325,#326));
#75=EDGE_LOOP('',(#327,#328,#329,#330));
#76=EDGE_LOOP('',(#331,#332,#333,#334));
#77=EDGE_LOOP('',(#335,#336,#337,#338));
#78=EDGE_LOOP('',(#339,#340,#341,#342));
#79=EDGE_LOOP('',(#343,#344,#345,#346));
#80=EDGE_LOOP('',(#347,#348,#349,#350));
#81=EDGE_LOOP('',(#351,#352,#353,#354));
#82=EDGE_LOOP('',(#355,#356,#357,#358,#359,#360));
#83=EDGE_LOOP('',(#361));
#84=EDGE_LOOP('',(#362));
#85=EDGE_LOOP('',(#363));
#86=EDGE_LOOP('',(#364));
#87=EDGE_LOOP('',(#365));
#88=EDGE_LOOP('',(#366));
#89=EDGE_LOOP('',(#367));
#90=EDGE_LOOP('',(#368));
#91=EDGE_LOOP('',(#369));
#92=EDGE_LOOP('',(#370));
#93=EDGE_LOOP('',(#371));
#94=EDGE_LOOP('',(#372));
#95=EDGE_LOOP('',(#373));
#96=EDGE_LOOP('',(#374,#375,#376,#377,#378,#379));
#97=EDGE_LOOP('',(#380));
#98=EDGE_LOOP('',(#381));
#99=EDGE_LOOP('',(#382));
#100=EDGE_LOOP('',(#383));
#101=EDGE_LOOP('',(#384));
#102=EDGE_LOOP('',(#385));
#103=EDGE_LOOP('',(#386));
#104=EDGE_LOOP('',(#387));
#105=EDGE_LOOP('',(#388));
#106=EDGE_LOOP('',(#389));
#107=EDGE_LOOP('',(#390));
#108=EDGE_LOOP('',(#391));
#109=EDGE_LOOP('',(#392));
#110=EDGE_LOOP('',(#393,#394,#395,#396));
#111=EDGE_LOOP('',(#397,#398,#399,#400));
#112=LINE('',#679,#135);
#113=LINE('',#685,#136);
#114=LINE('',#691,#137);
#115=LINE('',#697,#138);
#116=LINE('',#703,#139);
#117=LINE('',#709,#140);
#118=LINE('',#715,#141);
#119=LINE('',#721,#142);
#120=LINE('',#727,#143);
#121=LINE('',#733,#144);
#122=LINE('',#739,#145);
#123=LINE('',#745,#146);
#124=LINE('',#751,#147);
#125=LINE('',#758,#148);
#126=LINE('',#761,#149);
#127=LINE('',#765,#150);
#128=LINE('',#767,#151);
#129=LINE('',#769,#152);
#130=LINE('',#770,#153);
#131=LINE('',#775,#154);
#132=LINE('',#779,#155);
#133=LINE('',#781,#156);
#134=LINE('',#782,#157);
#135=VECTOR('',#545,2.75);
#136=VECTOR('',#552,2.75);
#137=VECTOR('',#559,2.75);
#138=VECTOR('',#566,2.75);
#139=VECTOR('',#573,2.75);
#140=VECTOR('',#580,2.75);
#141=VECTOR('',#587,2.25);
#142=VECTOR('',#594,2.24999999999999);
#143=VECTOR('',#601,2.24999999999999);
#144=VECTOR('',#608,2.25);
#145=VECTOR('',#615,2.24999999999999);
#146=VECTOR('',#622,2.24999999999999);
#147=VECTOR('',#629,7.00000000000001);
#148=VECTOR('',#636,1000.);
#149=VECTOR('',#639,1000.);
#150=VECTOR('',#642,1000.);
#151=VECTOR('',#643,1000.);
#152=VECTOR('',#644,1000.);
#153=VECTOR('',#645,1000.);
#154=VECTOR('',#650,1000.);
#155=VECTOR('',#655,1000.);
#156=VECTOR('',#656,1000.);
#157=VECTOR('',#657,1000.);
#158=CIRCLE('',#485,2.75);
#159=CIRCLE('',#486,2.75);
#160=CIRCLE('',#488,2.75);
#161=CIRCLE('',#489,2.75);
#162=CIRCLE('',#491,2.75);
#163=CIRCLE('',#492,2.75);
#164=CIRCLE('',#494,2.75);
#165=CIRCLE('',#495,2.75);
#166=CIRCLE('',#497,2.75);
#167=CIRCLE('',#498,2.75);
#168=CIRCLE('',#500,2.75);
#169=CIRCLE('',#501,2.75);
#170=CIRCLE('',#503,2.25);
#171=CIRCLE('',#504,2.24999999999999);
#172=CIRCLE('',#506,2.25);
#173=CIRCLE('',#507,2.24999999999999);
#174=CIRCLE('',#509,2.25);
#175=CIRCLE('',#510,2.24999999999999);
#176=CIRCLE('',#512,2.25);
#177=CIRCLE('',#513,2.24999999999999);
#178=CIRCLE('',#515,2.25);
#179=CIRCLE('',#516,2.24999999999999);
#180=CIRCLE('',#518,2.25);
#181=CIRCLE('',#519,2.24999999999999);
#182=CIRCLE('',#521,7.00000000000001);
#183=CIRCLE('',#522,7.00000000000001);
#184=CIRCLE('',#524,20.);
#185=CIRCLE('',#525,20.);
#186=CIRCLE('',#528,30.);
#187=CIRCLE('',#529,30.);
#188=CIRCLE('',#532,10.);
#189=CIRCLE('',#533,10.);
#190=CIRCLE('',#535,10.);
#191=CIRCLE('',#536,10.);
#192=VERTEX_POINT('',#676);
#193=VERTEX_POINT('',#678);
#194=VERTEX_POINT('',#682);
#195=VERTEX_POINT('',#684);
#196=VERTEX_POINT('',#688);
#197=VERTEX_POINT('',#690);
#198=VERTEX_POINT('',#694);
#199=VERTEX_POINT('',#696);
#200=VERTEX_POINT('',#700);
#201=VERTEX_POINT('',#702);
#202=VERTEX_POINT('',#706);
#203=VERTEX_POINT('',#708);
#204=VERTEX_POINT('',#712);
#205=VERTEX_POINT('',#714);
#206=VERTEX_POINT('',#718);
#207=VERTEX_POINT('',#720);
#208=VERTEX_POINT('',#724);
#209=VERTEX_POINT('',#726);
#210=VERTEX_POINT('',#730);
#211=VERTEX_POINT('',#732);
#212=VERTEX_POINT('',#736);
#213=VERTEX_POINT('',#738);
#214=VERTEX_POINT('',#742);
#215=VERTEX_POINT('',#744);
#216=VERTEX_POINT('',#748);
#217=VERTEX_POINT('',#750);
#218=VERTEX_POINT('',#754);
#219=VERTEX_POINT('',#755);
#220=VERTEX_POINT('',#757);
#221=VERTEX_POINT('',#759);
#222=VERTEX_POINT('',#763);
#223=VERTEX_POINT('',#764);
#224=VERTEX_POINT('',#766);
#225=VERTEX_POINT('',#768);
#226=VERTEX_POINT('',#772);
#227=VERTEX_POINT('',#774);
#228=VERTEX_POINT('',#778);
#229=VERTEX_POINT('',#780);
#230=EDGE_CURVE('',#192,#192,#158,.T.);
#231=EDGE_CURVE('',#192,#193,#112,.T.);
#232=EDGE_CURVE('',#193,#193,#159,.T.);
#233=EDGE_CURVE('',#194,#194,#160,.T.);
#234=EDGE_CURVE('',#194,#195,#113,.T.);
#235=EDGE_CURVE('',#195,#195,#161,.T.);
#236=EDGE_CURVE('',#196,#196,#162,.T.);
#237=EDGE_CURVE('',#196,#197,#114,.T.);
#238=EDGE_CURVE('',#197,#197,#163,.T.);
#239=EDGE_CURVE('',#198,#198,#164,.T.);
#240=EDGE_CURVE('',#198,#199,#115,.T.);
#241=EDGE_CURVE('',#199,#199,#165,.T.);
#242=EDGE_CURVE('',#200,#200,#166,.T.);
#243=EDGE_CURVE('',#200,#201,#116,.T.);
#244=EDGE_CURVE('',#201,#201,#167,.T.);
#245=EDGE_CURVE('',#202,#202,#168,.T.);
#246=EDGE_CURVE('',#202,#203,#117,.T.);
#247=EDGE_CURVE('',#203,#203,#169,.T.);
#248=EDGE_CURVE('',#204,#204,#170,.T.);
#249=EDGE_CURVE('',#204,#205,#118,.T.);
#250=EDGE_CURVE('',#205,#205,#171,.T.);
#251=EDGE_CURVE('',#206,#206,#172,.T.);
#252=EDGE_CURVE('',#206,#207,#119,.T.);
#253=EDGE_CURVE('',#207,#207,#173,.T.);
#254=EDGE_CURVE('',#208,#208,#174,.T.);
#255=EDGE_CURVE('',#208,#209,#120,.T.);
#256=EDGE_CURVE('',#209,#209,#175,.T.);
#257=EDGE_CURVE('',#210,#210,#176,.T.);
#258=EDGE_CURVE('',#210,#211,#121,.T.);
#259=EDGE_CURVE('',#211,#211,#177,.T.);
#260=EDGE_CURVE('',#212,#212,#178,.T.);
#261=EDGE_CURVE('',#212,#213,#122,.T.);
#262=EDGE_CURVE('',#213,#213,#179,.T.);
#263=EDGE_CURVE('',#214,#214,#180,.T.);
#264=EDGE_CURVE('',#214,#215,#123,.T.);
#265=EDGE_CURVE('',#215,#215,#181,.T.);
#266=EDGE_CURVE('',#216,#216,#182,.T.);
#267=EDGE_CURVE('',#216,#217,#124,.T.);
#268=EDGE_CURVE('',#217,#217,#183,.T.);
#269=EDGE_CURVE('',#218,#219,#184,.T.);
#270=EDGE_CURVE('',#218,#220,#125,.T.);
#271=EDGE_CURVE('',#220,#221,#185,.T.);
#272=EDGE_CURVE('',#221,#219,#126,.T.);
#273=EDGE_CURVE('',#222,#223,#127,.T.);
#274=EDGE_CURVE('',#222,#224,#128,.T.);
#275=EDGE_CURVE('',#224,#225,#129,.T.);
#276=EDGE_CURVE('',#223,#225,#130,.T.);
#277=EDGE_CURVE('',#225,#226,#186,.T.);
#278=EDGE_CURVE('',#227,#226,#131,.T.);
#279=EDGE_CURVE('',#223,#227,#187,.T.);
#280=EDGE_CURVE('',#228,#226,#132,.T.);
#281=EDGE_CURVE('',#228,#229,#133,.T.);
#282=EDGE_CURVE('',#229,#227,#134,.T.);
#283=EDGE_CURVE('',#229,#218,#188,.T.);
#284=EDGE_CURVE('',#219,#222,#189,.T.);
#285=EDGE_CURVE('',#220,#228,#190,.T.);
#286=EDGE_CURVE('',#224,#221,#191,.T.);
#287=ORIENTED_EDGE('',*,*,#230,.F.);
#288=ORIENTED_EDGE('',*,*,#231,.T.);
#289=ORIENTED_EDGE('',*,*,#232,.T.);
#290=ORIENTED_EDGE('',*,*,#231,.F.);
#291=ORIENTED_EDGE('',*,*,#233,.F.);
#292=ORIENTED_EDGE('',*,*,#234,.T.);
#293=ORIENTED_EDGE('',*,*,#235,.T.);
#294=ORIENTED_EDGE('',*,*,#234,.F.);
#295=ORIENTED_EDGE('',*,*,#236,.F.);
#296=ORIENTED_EDGE('',*,*,#237,.T.);
#297=ORIENTED_EDGE('',*,*,#238,.T.);
#298=ORIENTED_EDGE('',*,*,#237,.F.);
#299=ORIENTED_EDGE('',*,*,#239,.F.);
#300=ORIENTED_EDGE('',*,*,#240,.T.);
#301=ORIENTED_EDGE('',*,*,#241,.T.);
#302=ORIENTED_EDGE('',*,*,#240,.F.);
#303=ORIENTED_EDGE('',*,*,#242,.F.);
#304=ORIENTED_EDGE('',*,*,#243,.T.);
#305=ORIENTED_EDGE('',*,*,#244,.T.);
#306=ORIENTED_EDGE('',*,*,#243,.F.);
#307=ORIENTED_EDGE('',*,*,#245,.F.);
#308=ORIENTED_EDGE('',*,*,#246,.T.);
#309=ORIENTED_EDGE('',*,*,#247,.T.);
#310=ORIENTED_EDGE('',*,*,#246,.F.);
#311=ORIENTED_EDGE('',*,*,#248,.F.);
#312=ORIENTED_EDGE('',*,*,#249,.T.);
#313=ORIENTED_EDGE('',*,*,#250,.T.);
#314=ORIENTED_EDGE('',*,*,#249,.F.);
#315=ORIENTED_EDGE('',*,*,#251,.F.);
#316=ORIENTED_EDGE('',*,*,#252,.T.);
#317=ORIENTED_EDGE('',*,*,#253,.T.);
#318=ORIENTED_EDGE('',*,*,#252,.F.);
#319=ORIENTED_EDGE('',*,*,#254,.F.);
#320=ORIENTED_EDGE('',*,*,#255,.T.);
#321=ORIENTED_EDGE('',*,*,#256,.T.);
#322=ORIENTED_EDGE('',*,*,#255,.F.);
#323=ORIENTED_EDGE('',*,*,#257,.F.);
#324=ORIENTED_EDGE('',*,*,#258,.T.);
#325=ORIENTED_EDGE('',*,*,#259,.T.);
#326=ORIENTED_EDGE('',*,*,#258,.F.);
#327=ORIENTED_EDGE('',*,*,#260,.F.);
#328=ORIENTED_EDGE('',*,*,#261,.T.);
#329=ORIENTED_EDGE('',*,*,#262,.T.);
#330=ORIENTED_EDGE('',*,*,#261,.F.);
#331=ORIENTED_EDGE('',*,*,#263,.F.);
#332=ORIENTED_EDGE('',*,*,#264,.T.);
#333=ORIENTED_EDGE('',*,*,#265,.T.);
#334=ORIENTED_EDGE('',*,*,#264,.F.);
#335=ORIENTED_EDGE('',*,*,#266,.F.);
#336=ORIENTED_EDGE('',*,*,#267,.T.);
#337=ORIENTED_EDGE('',*,*,#268,.T.);
#338=ORIENTED_EDGE('',*,*,#267,.F.);
#339=ORIENTED_EDGE('',*,*,#269,.F.);
#340=ORIENTED_EDGE('',*,*,#270,.T.);
#341=ORIENTED_EDGE('',*,*,#271,.T.);
#342=ORIENTED_EDGE('',*,*,#272,.T.);
#343=ORIENTED_EDGE('',*,*,#273,.F.);
#344=ORIENTED_EDGE('',*,*,#274,.T.);
#345=ORIENTED_EDGE('',*,*,#275,.T.);
#346=ORIENTED_EDGE('',*,*,#276,.F.);
#347=ORIENTED_EDGE('',*,*,#277,.T.);
#348=ORIENTED_EDGE('',*,*,#278,.F.);
#349=ORIENTED_EDGE('',*,*,#279,.F.);
#350=ORIENTED_EDGE('',*,*,#276,.T.);
#351=ORIENTED_EDGE('',*,*,#280,.F.);
#352=ORIENTED_EDGE('',*,*,#281,.T.);
#353=ORIENTED_EDGE('',*,*,#282,.T.);
#354=ORIENTED_EDGE('',*,*,#278,.T.);
#355=ORIENTED_EDGE('',*,*,#282,.F.);
#356=ORIENTED_EDGE('',*,*,#283,.T.);
#357=ORIENTED_EDGE('',*,*,#269,.T.);
#358=ORIENTED_EDGE('',*,*,#284,.T.);
#359=ORIENTED_EDGE('',*,*,#273,.T.);
#360=ORIENTED_EDGE('',*,*,#279,.T.);
#361=ORIENTED_EDGE('',*,*,#232,.F.);
#362=ORIENTED_EDGE('',*,*,#235,.F.);
#363=ORIENTED_EDGE('',*,*,#238,.F.);
#364=ORIENTED_EDGE('',*,*,#241,.F.);
#365=ORIENTED_EDGE('',*,*,#244,.F.);
#366=ORIENTED_EDGE('',*,*,#247,.F.);
#367=ORIENTED_EDGE('',*,*,#250,.F.);
#368=ORIENTED_EDGE('',*,*,#253,.F.);
#369=ORIENTED_EDGE('',*,*,#256,.F.);
#370=ORIENTED_EDGE('',*,*,#259,.F.);
#371=ORIENTED_EDGE('',*,*,#262,.F.);
#372=ORIENTED_EDGE('',*,*,#265,.F.);
#373=ORIENTED_EDGE('',*,*,#268,.F.);
#374=ORIENTED_EDGE('',*,*,#271,.F.);
#375=ORIENTED_EDGE('',*,*,#285,.T.);
#376=ORIENTED_EDGE('',*,*,#280,.T.);
#377=ORIENTED_EDGE('',*,*,#277,.F.);
#378=ORIENTED_EDGE('',*,*,#275,.F.);
#379=ORIENTED_EDGE('',*,*,#286,.T.);
#380=ORIENTED_EDGE('',*,*,#230,.T.);
#381=ORIENTED_EDGE('',*,*,#233,.T.);
#382=ORIENTED_EDGE('',*,*,#236,.T.);
#383=ORIENTED_EDGE('',*,*,#239,.T.);
#384=ORIENTED_EDGE('',*,*,#242,.T.);
#385=ORIENTED_EDGE('',*,*,#245,.T.);
#386=ORIENTED_EDGE('',*,*,#248,.T.);
#387=ORIENTED_EDGE('',*,*,#251,.T.);
#388=ORIENTED_EDGE('',*,*,#254,.T.);
#389=ORIENTED_EDGE('',*,*,#257,.T.);
#390=ORIENTED_EDGE('',*,*,#260,.T.);
#391=ORIENTED_EDGE('',*,*,#263,.T.);
#392=ORIENTED_EDGE('',*,*,#266,.T.);
#393=ORIENTED_EDGE('',*,*,#284,.F.);
#394=ORIENTED_EDGE('',*,*,#272,.F.);
#395=ORIENTED_EDGE('',*,*,#286,.F.);
#396=ORIENTED_EDGE('',*,*,#274,.F.);
#397=ORIENTED_EDGE('',*,*,#283,.F.);
#398=ORIENTED_EDGE('',*,*,#281,.F.);
#399=ORIENTED_EDGE('',*,*,#285,.F.);
#400=ORIENTED_EDGE('',*,*,#270,.F.);
#401=CYLINDRICAL_SURFACE('',#484,2.75);
#402=CYLINDRICAL_SURFACE('',#487,2.75);
#403=CYLINDRICAL_SURFACE('',#490,2.75);
#404=CYLINDRICAL_SURFACE('',#493,2.75);
#405=CYLINDRICAL_SURFACE('',#496,2.75);
#406=CYLINDRICAL_SURFACE('',#499,2.75);
#407=CYLINDRICAL_SURFACE('',#502,2.25);
#408=CYLINDRICAL_SURFACE('',#505,2.24999999999999);
#409=CYLINDRICAL_SURFACE('',#508,2.24999999999999);
#410=CYLINDRICAL_SURFACE('',#511,2.25);
#411=CYLINDRICAL_SURFACE('',#514,2.24999999999999);
#412=CYLINDRICAL_SURFACE('',#517,2.24999999999999);
#413=CYLINDRICAL_SURFACE('',#520,7.00000000000001);
#414=CYLINDRICAL_SURFACE('',#523,20.);
#415=CYLINDRICAL_SURFACE('',#527,30.);
#416=CYLINDRICAL_SURFACE('',#537,10.);
#417=CYLINDRICAL_SURFACE('',#538,10.);
#418=STYLED_ITEM('',(#810),#440);
#419=STYLED_ITEM('',(#810),#441);
#420=STYLED_ITEM('',(#810),#442);
#421=STYLED_ITEM('',(#810),#443);
#422=STYLED_ITEM('',(#810),#444);
#423=STYLED_ITEM('',(#810),#445);
#424=STYLED_ITEM('',(#810),#446);
#425=STYLED_ITEM('',(#810),#447);
#426=STYLED_ITEM('',(#810),#448);
#427=STYLED_ITEM('',(#810),#449);
#428=STYLED_ITEM('',(#810),#450);
#429=STYLED_ITEM('',(#810),#451);
#430=STYLED_ITEM('',(#810),#452);
#431=STYLED_ITEM('',(#810),#453);
#432=STYLED_ITEM('',(#810),#454);
#433=STYLED_ITEM('',(#810),#455);
#434=STYLED_ITEM('',(#810),#456);
#435=STYLED_ITEM('',(#810),#457);
#436=STYLED_ITEM('',(#810),#458);
#437=STYLED_ITEM('',(#810),#459);
#438=STYLED_ITEM('',(#810),#460);
#439=STYLED_ITEM('',(#810),#13);
#440=ADVANCED_FACE('',(#44),#401,.F.);
#441=ADVANCED_FACE('',(#45),#402,.F.);
#442=ADVANCED_FACE('',(#46),#403,.F.);
#443=ADVANCED_FACE('',(#47),#404,.F.);
#444=ADVANCED_FACE('',(#48),#405,.F.);
#445=ADVANCED_FACE('',(#49),#406,.F.);
#446=ADVANCED_FACE('',(#50),#407,.F.);
#447=ADVANCED_FACE('',(#51),#408,.F.);
#448=ADVANCED_FACE('',(#52),#409,.F.);
#449=ADVANCED_FACE('',(#53),#410,.F.);
#450=ADVANCED_FACE('',(#54),#411,.F.);
#451=ADVANCED_FACE('',(#55),#412,.F.);
#452=ADVANCED_FACE('',(#56),#413,.F.);
#453=ADVANCED_FACE('',(#57),#414,.T.);
#454=ADVANCED_FACE('',(#58),#40,.F.);
#455=ADVANCED_FACE('',(#59),#415,.T.);
#456=ADVANCED_FACE('',(#60),#41,.T.);
#457=ADVANCED_FACE('',(#61,#14,#15,#16,#17,#18,#19,#20,#21,#22,#23,#24,
#25,#26),#42,.T.);
#458=ADVANCED_FACE('',(#62,#27,#28,#29,#30,#31,#32,#33,#34,#35,#36,#37,
#38,#39),#43,.F.);
#459=ADVANCED_FACE('',(#63),#416,.F.);
#460=ADVANCED_FACE('',(#64),#417,.F.);
#461=CLOSED_SHELL('',(#440,#441,#442,#443,#444,#445,#446,#447,#448,#449,
#450,#451,#452,#453,#454,#455,#456,#457,#458,#459,#460));
#462=DERIVED_UNIT_ELEMENT(#465,1.);
#463=DERIVED_UNIT_ELEMENT(#796,-3.);
#464=DIMENSIONAL_EXPONENTS(1.,0.,0.,0.,0.,0.,0.);
#465=(
CONVERSION_BASED_UNIT('gram',#467)
MASS_UNIT()
NAMED_UNIT(#464)
);
#466=(
MASS_UNIT()
NAMED_UNIT(*)
SI_UNIT(.KILO.,.GRAM.)
);
#467=MASS_MEASURE_WITH_UNIT(MASS_MEASURE(0.001),#466);
#468=DERIVED_UNIT((#462,#463));
#469=MEASURE_REPRESENTATION_ITEM('density measure',
POSITIVE_RATIO_MEASURE(1.),#468);
#470=PROPERTY_DEFINITION_REPRESENTATION(#475,#472);
#471=PROPERTY_DEFINITION_REPRESENTATION(#476,#473);
#472=REPRESENTATION('material name',(#474),#793);
#473=REPRESENTATION('density',(#469),#793);
#474=DESCRIPTIVE_REPRESENTATION_ITEM('Generic','Generic');
#475=PROPERTY_DEFINITION('material property','material name',#803);
#476=PROPERTY_DEFINITION('material property','density of part',#803);
#477=DATE_TIME_ROLE('creation_date');
#478=APPLIED_DATE_AND_TIME_ASSIGNMENT(#479,#477,(#803));
#479=DATE_AND_TIME(#480,#481);
#480=CALENDAR_DATE(2026,19,6);
#481=LOCAL_TIME(0,0,0.,#482);
#482=COORDINATED_UNIVERSAL_TIME_OFFSET(0,0,.BEHIND.);
#483=AXIS2_PLACEMENT_3D('placement',#674,#539,#540);
#484=AXIS2_PLACEMENT_3D('',#675,#541,#542);
#485=AXIS2_PLACEMENT_3D('',#677,#543,#544);
#486=AXIS2_PLACEMENT_3D('',#680,#546,#547);
#487=AXIS2_PLACEMENT_3D('',#681,#548,#549);
#488=AXIS2_PLACEMENT_3D('',#683,#550,#551);
#489=AXIS2_PLACEMENT_3D('',#686,#553,#554);
#490=AXIS2_PLACEMENT_3D('',#687,#555,#556);
#491=AXIS2_PLACEMENT_3D('',#689,#557,#558);
#492=AXIS2_PLACEMENT_3D('',#692,#560,#561);
#493=AXIS2_PLACEMENT_3D('',#693,#562,#563);
#494=AXIS2_PLACEMENT_3D('',#695,#564,#565);
#495=AXIS2_PLACEMENT_3D('',#698,#567,#568);
#496=AXIS2_PLACEMENT_3D('',#699,#569,#570);
#497=AXIS2_PLACEMENT_3D('',#701,#571,#572);
#498=AXIS2_PLACEMENT_3D('',#704,#574,#575);
#499=AXIS2_PLACEMENT_3D('',#705,#576,#577);
#500=AXIS2_PLACEMENT_3D('',#707,#578,#579);
#501=AXIS2_PLACEMENT_3D('',#710,#581,#582);
#502=AXIS2_PLACEMENT_3D('',#711,#583,#584);
#503=AXIS2_PLACEMENT_3D('',#713,#585,#586);
#504=AXIS2_PLACEMENT_3D('',#716,#588,#589);
#505=AXIS2_PLACEMENT_3D('',#717,#590,#591);
#506=AXIS2_PLACEMENT_3D('',#719,#592,#593);
#507=AXIS2_PLACEMENT_3D('',#722,#595,#596);
#508=AXIS2_PLACEMENT_3D('',#723,#597,#598);
#509=AXIS2_PLACEMENT_3D('',#725,#599,#600);
#510=AXIS2_PLACEMENT_3D('',#728,#602,#603);
#511=AXIS2_PLACEMENT_3D('',#729,#604,#605);
#512=AXIS2_PLACEMENT_3D('',#731,#606,#607);
#513=AXIS2_PLACEMENT_3D('',#734,#609,#610);
#514=AXIS2_PLACEMENT_3D('',#735,#611,#612);
#515=AXIS2_PLACEMENT_3D('',#737,#613,#614);
#516=AXIS2_PLACEMENT_3D('',#740,#616,#617);
#517=AXIS2_PLACEMENT_3D('',#741,#618,#619);
#518=AXIS2_PLACEMENT_3D('',#743,#620,#621);
#519=AXIS2_PLACEMENT_3D('',#746,#623,#624);
#520=AXIS2_PLACEMENT_3D('',#747,#625,#626);
#521=AXIS2_PLACEMENT_3D('',#749,#627,#628);
#522=AXIS2_PLACEMENT_3D('',#752,#630,#631);
#523=AXIS2_PLACEMENT_3D('',#753,#632,#633);
#524=AXIS2_PLACEMENT_3D('',#756,#634,#635);
#525=AXIS2_PLACEMENT_3D('',#760,#637,#638);
#526=AXIS2_PLACEMENT_3D('',#762,#640,#641);
#527=AXIS2_PLACEMENT_3D('',#771,#646,#647);
#528=AXIS2_PLACEMENT_3D('',#773,#648,#649);
#529=AXIS2_PLACEMENT_3D('',#776,#651,#652);
#530=AXIS2_PLACEMENT_3D('',#777,#653,#654);
#531=AXIS2_PLACEMENT_3D('',#783,#658,#659);
#532=AXIS2_PLACEMENT_3D('',#784,#660,#661);
#533=AXIS2_PLACEMENT_3D('',#785,#662,#663);
#534=AXIS2_PLACEMENT_3D('',#786,#664,#665);
#535=AXIS2_PLACEMENT_3D('',#787,#666,#667);
#536=AXIS2_PLACEMENT_3D('',#788,#668,#669);
#537=AXIS2_PLACEMENT_3D('',#789,#670,#671);
#538=AXIS2_PLACEMENT_3D('',#790,#672,#673);
#539=DIRECTION('axis',(0.,0.,1.));
#540=DIRECTION('refdir',(1.,0.,0.));
#541=DIRECTION('center_axis',(1.47910575492582E-31,-1.,-3.08148791103188E-33));
#542=DIRECTION('ref_axis',(-1.,-1.47910575492582E-31,3.01216059508189E-31));
#543=DIRECTION('center_axis',(1.47910575492582E-31,-1.,-3.08148791103188E-33));
#544=DIRECTION('ref_axis',(-1.,-1.47910575492582E-31,3.01216059508189E-31));
#545=DIRECTION('',(1.47910575492582E-31,-1.,-3.08148791103188E-33));
#546=DIRECTION('center_axis',(1.47910575492582E-31,-1.,-3.08148791103188E-33));
#547=DIRECTION('ref_axis',(-1.,-1.47910575492582E-31,3.01216059508189E-31));
#548=DIRECTION('center_axis',(1.47910575492582E-31,-1.,-3.08148791103188E-33));
#549=DIRECTION('ref_axis',(-1.,-1.47910575492582E-31,3.01216059508189E-31));
#550=DIRECTION('center_axis',(1.47910575492582E-31,-1.,-3.08148791103188E-33));
#551=DIRECTION('ref_axis',(-1.,-1.47910575492582E-31,3.01216059508189E-31));
#552=DIRECTION('',(1.47910575492582E-31,-1.,-3.08148791103188E-33));
#553=DIRECTION('center_axis',(1.47910575492582E-31,-1.,-3.08148791103188E-33));
#554=DIRECTION('ref_axis',(-1.,-1.47910575492582E-31,3.01216059508189E-31));
#555=DIRECTION('center_axis',(1.47910575492582E-31,-1.,-3.08148791103188E-33));
#556=DIRECTION('ref_axis',(-1.,-1.47910575492582E-31,3.01216059508189E-31));
#557=DIRECTION('center_axis',(1.47910575492582E-31,-1.,-3.08148791103188E-33));
#558=DIRECTION('ref_axis',(-1.,-1.47910575492582E-31,3.01216059508189E-31));
#559=DIRECTION('',(1.47910575492582E-31,-1.,-3.08148791103188E-33));
#560=DIRECTION('center_axis',(1.47910575492582E-31,-1.,-3.08148791103188E-33));
#561=DIRECTION('ref_axis',(-1.,-1.47910575492582E-31,3.01216059508189E-31));
#562=DIRECTION('center_axis',(1.47910575492582E-31,-1.,-3.08148791103188E-33));
#563=DIRECTION('ref_axis',(-1.,-1.47910575492582E-31,3.01216059508189E-31));
#564=DIRECTION('center_axis',(1.47910575492582E-31,-1.,-3.08148791103188E-33));
#565=DIRECTION('ref_axis',(-1.,-1.47910575492582E-31,3.01216059508189E-31));
#566=DIRECTION('',(1.47910575492582E-31,-1.,-3.08148791103188E-33));
#567=DIRECTION('center_axis',(1.47910575492582E-31,-1.,-3.08148791103188E-33));
#568=DIRECTION('ref_axis',(-1.,-1.47910575492582E-31,3.01216059508189E-31));
#569=DIRECTION('center_axis',(1.47910575492582E-31,-1.,-3.08148791103188E-33));
#570=DIRECTION('ref_axis',(-1.,-1.47910575492582E-31,3.01216059508189E-31));
#571=DIRECTION('center_axis',(1.47910575492582E-31,-1.,-3.08148791103188E-33));
#572=DIRECTION('ref_axis',(-1.,-1.47910575492582E-31,3.01216059508189E-31));
#573=DIRECTION('',(1.47910575492582E-31,-1.,-3.08148791103188E-33));
#574=DIRECTION('center_axis',(1.47910575492582E-31,-1.,-3.08148791103188E-33));
#575=DIRECTION('ref_axis',(-1.,-1.47910575492582E-31,3.01216059508189E-31));
#576=DIRECTION('center_axis',(1.47910575492582E-31,-1.,-3.08148791103188E-33));
#577=DIRECTION('ref_axis',(-1.,-1.47910575492582E-31,3.01216059508189E-31));
#578=DIRECTION('center_axis',(1.47910575492582E-31,-1.,-3.08148791103188E-33));
#579=DIRECTION('ref_axis',(-1.,-1.47910575492582E-31,3.01216059508189E-31));
#580=DIRECTION('',(1.47910575492582E-31,-1.,-3.08148791103188E-33));
#581=DIRECTION('center_axis',(1.47910575492582E-31,-1.,-3.08148791103188E-33));
#582=DIRECTION('ref_axis',(-1.,-1.47910575492582E-31,3.01216059508189E-31));
#583=DIRECTION('center_axis',(1.47910575492582E-31,-1.,-3.08148791103188E-33));
#584=DIRECTION('ref_axis',(-1.,-1.47910575492582E-31,3.01216059508189E-31));
#585=DIRECTION('center_axis',(1.47910575492582E-31,-1.,-3.08148791103188E-33));
#586=DIRECTION('ref_axis',(-1.,-1.47910575492582E-31,3.01216059508189E-31));
#587=DIRECTION('',(1.47910575492582E-31,-1.,-3.08148791103188E-33));
#588=DIRECTION('center_axis',(1.47910575492582E-31,-1.,-3.08148791103188E-33));
#589=DIRECTION('ref_axis',(-1.,-1.47910575492582E-31,3.01216059508189E-31));
#590=DIRECTION('center_axis',(1.47910575492582E-31,-1.,-3.08148791103188E-33));
#591=DIRECTION('ref_axis',(-1.,-1.47910575492582E-31,3.01216059508189E-31));
#592=DIRECTION('center_axis',(1.47910575492582E-31,-1.,-3.08148791103188E-33));
#593=DIRECTION('ref_axis',(-1.,-1.47910575492582E-31,3.01216059508189E-31));
#594=DIRECTION('',(1.47910575492582E-31,-1.,-3.08148791103188E-33));
#595=DIRECTION('center_axis',(1.47910575492582E-31,-1.,-3.08148791103188E-33));
#596=DIRECTION('ref_axis',(-1.,-1.47910575492582E-31,3.01216059508189E-31));
#597=DIRECTION('center_axis',(1.47910575492582E-31,-1.,-3.08148791103188E-33));
#598=DIRECTION('ref_axis',(-1.,-1.47910575492582E-31,3.01216059508189E-31));
#599=DIRECTION('center_axis',(1.47910575492582E-31,-1.,-3.08148791103188E-33));
#600=DIRECTION('ref_axis',(-1.,-1.47910575492582E-31,3.01216059508189E-31));
#601=DIRECTION('',(1.47910575492582E-31,-1.,-3.08148791103188E-33));
#602=DIRECTION('center_axis',(1.47910575492582E-31,-1.,-3.08148791103188E-33));
#603=DIRECTION('ref_axis',(-1.,-1.47910575492582E-31,3.01216059508189E-31));
#604=DIRECTION('center_axis',(1.47910575492582E-31,-1.,-3.08148791103188E-33));
#605=DIRECTION('ref_axis',(-1.,-1.47910575492582E-31,3.01216059508189E-31));
#606=DIRECTION('center_axis',(1.47910575492582E-31,-1.,-3.08148791103188E-33));
#607=DIRECTION('ref_axis',(-1.,-1.47910575492582E-31,3.01216059508189E-31));
#608=DIRECTION('',(1.47910575492582E-31,-1.,-3.08148791103188E-33));
#609=DIRECTION('center_axis',(1.47910575492582E-31,-1.,-3.08148791103188E-33));
#610=DIRECTION('ref_axis',(-1.,-1.47910575492582E-31,3.01216059508189E-31));
#611=DIRECTION('center_axis',(1.47910575492582E-31,-1.,-3.08148791103188E-33));
#612=DIRECTION('ref_axis',(-1.,-1.47910575492582E-31,3.01216059508189E-31));
#613=DIRECTION('center_axis',(1.47910575492582E-31,-1.,-3.08148791103188E-33));
#614=DIRECTION('ref_axis',(-1.,-1.47910575492582E-31,3.01216059508189E-31));
#615=DIRECTION('',(1.47910575492582E-31,-1.,-3.08148791103188E-33));
#616=DIRECTION('center_axis',(1.47910575492582E-31,-1.,-3.08148791103188E-33));
#617=DIRECTION('ref_axis',(-1.,-1.47910575492582E-31,3.01216059508189E-31));
#618=DIRECTION('center_axis',(1.47910575492582E-31,-1.,-3.08148791103188E-33));
#619=DIRECTION('ref_axis',(-1.,-1.47910575492582E-31,3.01216059508189E-31));
#620=DIRECTION('center_axis',(1.47910575492582E-31,-1.,-3.08148791103188E-33));
#621=DIRECTION('ref_axis',(-1.,-1.47910575492582E-31,3.01216059508189E-31));
#622=DIRECTION('',(1.47910575492582E-31,-1.,-3.08148791103188E-33));
#623=DIRECTION('center_axis',(1.47910575492582E-31,-1.,-3.08148791103188E-33));
#624=DIRECTION('ref_axis',(-1.,-1.47910575492582E-31,3.01216059508189E-31));
#625=DIRECTION('center_axis',(1.47910575492582E-31,-1.,-3.08148791103188E-33));
#626=DIRECTION('ref_axis',(-1.,-1.47910575492582E-31,3.01216059508189E-31));
#627=DIRECTION('center_axis',(1.47910575492582E-31,-1.,-3.08148791103188E-33));
#628=DIRECTION('ref_axis',(-1.,-1.47910575492582E-31,3.01216059508189E-31));
#629=DIRECTION('',(1.47910575492582E-31,-1.,-3.08148791103188E-33));
#630=DIRECTION('center_axis',(1.47910575492582E-31,-1.,-3.08148791103188E-33));
#631=DIRECTION('ref_axis',(-1.,-1.47910575492582E-31,3.01216059508189E-31));
#632=DIRECTION('center_axis',(-1.47910575492582E-31,1.,3.08148791103188E-33));
#633=DIRECTION('ref_axis',(1.,1.47910575492582E-31,-3.01216059508189E-31));
#634=DIRECTION('center_axis',(1.47910575492582E-31,-1.,-3.08148791103188E-33));
#635=DIRECTION('ref_axis',(-1.,-1.47910575492582E-31,3.01216059508189E-31));
#636=DIRECTION('',(-1.47910575492582E-31,1.,3.08148791103188E-33));
#637=DIRECTION('center_axis',(1.47910575492582E-31,-1.,-3.08148791103188E-33));
#638=DIRECTION('ref_axis',(-1.,-1.47910575492582E-31,3.01216059508189E-31));
#639=DIRECTION('',(1.47910575492582E-31,-1.,-3.08148791103188E-33));
#640=DIRECTION('center_axis',(-0.166666666666667,-2.161337452671E-32,-0.986013297183269));
#641=DIRECTION('ref_axis',(0.986013297183269,1.46355375548221E-31,-0.166666666666667));
#642=DIRECTION('',(-0.986013297183269,-1.46355375548221E-31,0.166666666666667));
#643=DIRECTION('',(-1.47910575492582E-31,1.,3.08148791103188E-33));
#644=DIRECTION('',(-0.986013297183269,-1.46355375548221E-31,0.166666666666667));
#645=DIRECTION('',(-1.47910575492582E-31,1.,3.08148791103188E-33));
#646=DIRECTION('center_axis',(-1.47910575492582E-31,1.,3.08148791103188E-33));
#647=DIRECTION('ref_axis',(-1.,-1.47910575492582E-31,-1.22464679914735E-16));
#648=DIRECTION('center_axis',(1.47910575492582E-31,-1.,-3.08148791103188E-33));
#649=DIRECTION('ref_axis',(-1.,-1.47910575492582E-31,3.01216059508189E-31));
#650=DIRECTION('',(-1.47910575492582E-31,1.,3.08148791103188E-33));
#651=DIRECTION('center_axis',(1.47910575492582E-31,-1.,-3.08148791103188E-33));
#652=DIRECTION('ref_axis',(-1.,-1.47910575492582E-31,3.01216059508189E-31));
#653=DIRECTION('center_axis',(0.166666666666667,2.76901506374839E-32,-0.986013297183269));
#654=DIRECTION('ref_axis',(0.986013297183269,1.4532821291121E-31,0.166666666666667));
#655=DIRECTION('',(-0.986013297183269,-1.4532821291121E-31,-0.166666666666667));
#656=DIRECTION('',(1.47910575492582E-31,-1.,-3.08148791103188E-33));
#657=DIRECTION('',(-0.986013297183269,-1.4532821291121E-31,-0.166666666666667));
#658=DIRECTION('center_axis',(1.47910575492582E-31,-1.,-3.08148791103188E-33));
#659=DIRECTION('ref_axis',(-1.,-1.47910575492582E-31,3.01216059508189E-31));
#660=DIRECTION('center_axis',(-1.47910575492582E-31,1.,3.08148791103188E-33));
#661=DIRECTION('ref_axis',(-1.,-1.47910575492582E-31,3.01216059508189E-31));
#662=DIRECTION('center_axis',(-1.47910575492582E-31,1.,3.08148791103188E-33));
#663=DIRECTION('ref_axis',(-1.,-1.47910575492582E-31,-1.73472347597681E-15));
#664=DIRECTION('center_axis',(1.47910575492582E-31,-1.,-3.08148791103188E-33));
#665=DIRECTION('ref_axis',(-1.,-1.47910575492582E-31,3.01216059508189E-31));
#666=DIRECTION('center_axis',(1.47910575492582E-31,-1.,-3.08148791103188E-33));
#667=DIRECTION('ref_axis',(-1.,-1.47910575492582E-31,3.01216059508189E-31));
#668=DIRECTION('center_axis',(1.47910575492582E-31,-1.,-3.08148791103188E-33));
#669=DIRECTION('ref_axis',(-1.,-1.47910575492582E-31,3.01216059508189E-31));
#670=DIRECTION('center_axis',(-1.47910575492582E-31,1.,3.08148791103188E-33));
#671=DIRECTION('ref_axis',(1.,1.47910575492582E-31,-3.01216059508189E-31));
#672=DIRECTION('center_axis',(-1.47910575492582E-31,1.,3.08148791103188E-33));
#673=DIRECTION('ref_axis',(1.,1.47910575492582E-31,-3.01216059508189E-31));
#674=CARTESIAN_POINT('',(0.,0.,0.));
#675=CARTESIAN_POINT('Origin',(-7.70053203585314E-30,-4.44089209850063E-15,
-20.));
#676=CARTESIAN_POINT('',(2.75,2.,-20.));
#677=CARTESIAN_POINT('Origin',(-7.9963531868383E-30,2.,-20.));
#678=CARTESIAN_POINT('',(2.75,-4.44089209850063E-15,-20.));
#679=CARTESIAN_POINT('',(2.75,-4.44089209850063E-15,-20.));
#680=CARTESIAN_POINT('Origin',(-7.70053203585314E-30,-4.44089209850063E-15,
-20.));
#681=CARTESIAN_POINT('Origin',(-17.3205080756888,-4.44089209850063E-15,
-10.));
#682=CARTESIAN_POINT('',(-14.5705080756888,2.,-10.));
#683=CARTESIAN_POINT('Origin',(-17.3205080756888,2.,-10.));
#684=CARTESIAN_POINT('',(-14.5705080756888,-4.44089209850063E-15,-10.));
#685=CARTESIAN_POINT('',(-14.5705080756888,-4.44089209850063E-15,-10.));
#686=CARTESIAN_POINT('Origin',(-17.3205080756888,-4.44089209850063E-15,
-10.));
#687=CARTESIAN_POINT('Origin',(-17.3205080756888,-4.44089209850063E-15,
10.));
#688=CARTESIAN_POINT('',(-14.5705080756888,2.,10.));
#689=CARTESIAN_POINT('Origin',(-17.3205080756888,2.,10.));
#690=CARTESIAN_POINT('',(-14.5705080756888,-4.44089209850063E-15,10.));
#691=CARTESIAN_POINT('',(-14.5705080756888,-4.44089209850063E-15,10.));
#692=CARTESIAN_POINT('Origin',(-17.3205080756888,-4.44089209850063E-15,
10.));
#693=CARTESIAN_POINT('Origin',(4.34786981171865E-30,-4.44089209850063E-15,
20.));
#694=CARTESIAN_POINT('',(2.75,2.,20.));
#695=CARTESIAN_POINT('Origin',(4.05204866073349E-30,2.,20.));
#696=CARTESIAN_POINT('',(2.75,-4.44089209850063E-15,20.));
#697=CARTESIAN_POINT('',(2.75,-4.44089209850063E-15,20.));
#698=CARTESIAN_POINT('Origin',(4.34786981171865E-30,-4.44089209850063E-15,
20.));
#699=CARTESIAN_POINT('Origin',(17.3205080756888,-4.44089209850063E-15,10.));
#700=CARTESIAN_POINT('',(20.0705080756888,2.,10.));
#701=CARTESIAN_POINT('Origin',(17.3205080756888,2.,10.));
#702=CARTESIAN_POINT('',(20.0705080756888,-4.44089209850063E-15,10.));
#703=CARTESIAN_POINT('',(20.0705080756888,-4.44089209850063E-15,10.));
#704=CARTESIAN_POINT('Origin',(17.3205080756888,-4.44089209850063E-15,10.));
#705=CARTESIAN_POINT('Origin',(17.3205080756888,-4.44089209850063E-15,-10.));
#706=CARTESIAN_POINT('',(20.0705080756888,2.,-10.));
#707=CARTESIAN_POINT('Origin',(17.3205080756888,2.,-10.));
#708=CARTESIAN_POINT('',(20.0705080756888,-4.44089209850063E-15,-10.));
#709=CARTESIAN_POINT('',(20.0705080756888,-4.44089209850063E-15,-10.));
#710=CARTESIAN_POINT('Origin',(17.3205080756888,-4.44089209850063E-15,-10.));
#711=CARTESIAN_POINT('Origin',(11.,-4.44089209850063E-15,1.84314369322488E-17));
#712=CARTESIAN_POINT('',(13.25,2.,2.93976966740402E-16));
#713=CARTESIAN_POINT('Origin',(11.,2.,1.84314369322488E-17));
#714=CARTESIAN_POINT('',(13.25,-5.55111512312578E-15,2.93976966740402E-16));
#715=CARTESIAN_POINT('',(13.25,-4.44089209850063E-15,2.93976966740402E-16));
#716=CARTESIAN_POINT('Origin',(11.,-5.55111512312578E-15,1.84314369322488E-17));
#717=CARTESIAN_POINT('Origin',(5.49999999999998,-4.44089209850063E-15,-9.52627944162884));
#718=CARTESIAN_POINT('',(7.74999999999997,2.,-9.52627944162884));
#719=CARTESIAN_POINT('Origin',(5.49999999999998,2.,-9.52627944162884));
#720=CARTESIAN_POINT('',(7.74999999999997,-5.55111512312578E-15,-9.52627944162884));
#721=CARTESIAN_POINT('',(7.74999999999997,-4.44089209850063E-15,-9.52627944162884));
#722=CARTESIAN_POINT('Origin',(5.49999999999998,-5.55111512312578E-15,-9.52627944162884));
#723=CARTESIAN_POINT('Origin',(-5.50000000000005,-4.44089209850063E-15,
-9.5262794416288));
#724=CARTESIAN_POINT('',(-3.25000000000005,2.,-9.5262794416288));
#725=CARTESIAN_POINT('Origin',(-5.50000000000005,2.,-9.5262794416288));
#726=CARTESIAN_POINT('',(-3.25000000000005,-5.55111512312578E-15,-9.5262794416288));
#727=CARTESIAN_POINT('',(-3.25000000000005,-4.44089209850063E-15,-9.5262794416288));
#728=CARTESIAN_POINT('Origin',(-5.50000000000005,-5.55111512312578E-15,
-9.5262794416288));
#729=CARTESIAN_POINT('Origin',(-11.,-4.44089209850063E-15,7.68310208914812E-14));
#730=CARTESIAN_POINT('',(-8.75000000000001,2.,7.71065664212893E-14));
#731=CARTESIAN_POINT('Origin',(-11.,2.,7.68310208914812E-14));
#732=CARTESIAN_POINT('',(-8.75000000000001,-5.55111512312578E-15,7.71065664212893E-14));
#733=CARTESIAN_POINT('',(-8.75000000000001,-4.44089209850063E-15,7.71065664212893E-14));
#734=CARTESIAN_POINT('Origin',(-11.,-5.55111512312578E-15,7.68310208914812E-14));
#735=CARTESIAN_POINT('Origin',(-5.49999999999991,-4.44089209850063E-15,
9.52627944162888));
#736=CARTESIAN_POINT('',(-3.24999999999992,2.,9.52627944162888));
#737=CARTESIAN_POINT('Origin',(-5.49999999999991,2.,9.52627944162888));
#738=CARTESIAN_POINT('',(-3.24999999999992,-5.55111512312578E-15,9.52627944162888));
#739=CARTESIAN_POINT('',(-3.24999999999992,-4.44089209850063E-15,9.52627944162888));
#740=CARTESIAN_POINT('Origin',(-5.49999999999991,-5.55111512312578E-15,
9.52627944162888));
#741=CARTESIAN_POINT('Origin',(5.50000000000011,-4.44089209850063E-15,9.52627944162876));
#742=CARTESIAN_POINT('',(7.75000000000011,2.,9.52627944162876));
#743=CARTESIAN_POINT('Origin',(5.50000000000011,2.,9.52627944162876));
#744=CARTESIAN_POINT('',(7.75000000000011,-5.55111512312578E-15,9.52627944162876));
#745=CARTESIAN_POINT('',(7.75000000000011,-4.44089209850063E-15,9.52627944162876));
#746=CARTESIAN_POINT('Origin',(5.50000000000011,-5.55111512312578E-15,9.52627944162876));
#747=CARTESIAN_POINT('Origin',(120.,-4.44089209850063E-15,1.8431436932216E-17));
#748=CARTESIAN_POINT('',(127.,2.,8.75684196335362E-16));
#749=CARTESIAN_POINT('Origin',(120.,2.,1.8431436932216E-17));
#750=CARTESIAN_POINT('',(127.,-3.33066907387547E-15,8.75684196335362E-16));
#751=CARTESIAN_POINT('',(127.,-4.44089209850063E-15,8.75684196335362E-16));
#752=CARTESIAN_POINT('Origin',(120.,-3.33066907387547E-15,1.8431436932216E-17));
#753=CARTESIAN_POINT('Origin',(120.,-4.44089209850063E-15,1.8431436932216E-17));
#754=CARTESIAN_POINT('',(107.523603827419,-4.44089209850063E-15,-15.6313639374434));
#755=CARTESIAN_POINT('',(107.523603827419,-4.44089209850063E-15,15.6313639374434));
#756=CARTESIAN_POINT('Origin',(120.,-4.44089209850063E-15,1.8431436932216E-17));
#757=CARTESIAN_POINT('',(107.523603827419,2.,-15.6313639374434));
#758=CARTESIAN_POINT('',(107.523603827419,-4.44089209850063E-15,-15.6313639374434));
#759=CARTESIAN_POINT('',(107.523603827419,2.,15.6313639374434));
#760=CARTESIAN_POINT('Origin',(120.,2.,1.8431436932216E-17));
#761=CARTESIAN_POINT('',(107.523603827419,-4.44089209850063E-15,15.6313639374434));
#762=CARTESIAN_POINT('Origin',(5.,-4.44089209850063E-15,29.5803989154981));
#763=CARTESIAN_POINT('',(99.6187390744618,-4.44089209850063E-15,13.5869129343323));
#764=CARTESIAN_POINT('',(5.,-4.44089209850063E-15,29.5803989154981));
#765=CARTESIAN_POINT('',(5.,-4.44089209850063E-15,29.5803989154981));
#766=CARTESIAN_POINT('',(99.6187390744618,2.,13.5869129343323));
#767=CARTESIAN_POINT('',(99.6187390744618,2.,13.5869129343324));
#768=CARTESIAN_POINT('',(5.,2.,29.5803989154981));
#769=CARTESIAN_POINT('',(5.,2.,29.5803989154981));
#770=CARTESIAN_POINT('',(5.,-4.44089209850063E-15,29.5803989154981));
#771=CARTESIAN_POINT('Origin',(-1.67633111206724E-30,-4.44089209850063E-15,
1.84314369322521E-17));
#772=CARTESIAN_POINT('',(5.,2.,-29.5803989154981));
#773=CARTESIAN_POINT('Origin',(-1.9721522630524E-30,2.,1.84314369322521E-17));
#774=CARTESIAN_POINT('',(5.,-4.44089209850063E-15,-29.5803989154981));
#775=CARTESIAN_POINT('',(5.,-4.44089209850063E-15,-29.5803989154981));
#776=CARTESIAN_POINT('Origin',(-1.67633111206724E-30,-4.44089209850063E-15,
1.84314369322521E-17));
#777=CARTESIAN_POINT('Origin',(5.00000000000001,-4.44089209850063E-15,-29.5803989154981));
#778=CARTESIAN_POINT('',(99.6187390744618,2.,-13.5869129343323));
#779=CARTESIAN_POINT('',(5.00000000000001,2.,-29.5803989154981));
#780=CARTESIAN_POINT('',(99.6187390744618,-4.44089209850063E-15,-13.5869129343323));
#781=CARTESIAN_POINT('',(99.6187390744618,-4.44089209850063E-15,-13.5869129343323));
#782=CARTESIAN_POINT('',(5.00000000000001,-4.44089209850063E-15,-29.5803989154981));
#783=CARTESIAN_POINT('Origin',(-1.67633111206724E-30,-4.44089209850063E-15,
1.84314369322521E-17));
#784=CARTESIAN_POINT('Origin',(101.285405741128,-4.44089209850063E-15,-23.447045906165));
#785=CARTESIAN_POINT('Origin',(101.285405741128,-4.44089209850063E-15,23.447045906165));
#786=CARTESIAN_POINT('Origin',(-1.9721522630524E-30,2.,1.84314369322521E-17));
#787=CARTESIAN_POINT('Origin',(101.285405741128,2.,-23.447045906165));
#788=CARTESIAN_POINT('Origin',(101.285405741128,2.,23.447045906165));
#789=CARTESIAN_POINT('Origin',(101.285405741128,-4.44089209850063E-15,23.447045906165));
#790=CARTESIAN_POINT('Origin',(101.285405741128,-4.44089209850063E-15,-23.447045906165));
#791=UNCERTAINTY_MEASURE_WITH_UNIT(LENGTH_MEASURE(0.01),#795,
'DISTANCE_ACCURACY_VALUE',
'Maximum model space distance between geometric entities at asserted c
onnectivities');
#792=UNCERTAINTY_MEASURE_WITH_UNIT(LENGTH_MEASURE(0.01),#795,
'DISTANCE_ACCURACY_VALUE',
'Maximum model space distance between geometric entities at asserted c
onnectivities');
#793=(
GEOMETRIC_REPRESENTATION_CONTEXT(3)
GLOBAL_UNCERTAINTY_ASSIGNED_CONTEXT((#791))
GLOBAL_UNIT_ASSIGNED_CONTEXT((#795,#797,#798))
REPRESENTATION_CONTEXT('','3D')
);
#794=(
GEOMETRIC_REPRESENTATION_CONTEXT(3)
GLOBAL_UNCERTAINTY_ASSIGNED_CONTEXT((#792))
GLOBAL_UNIT_ASSIGNED_CONTEXT((#795,#797,#798))
REPRESENTATION_CONTEXT('','3D')
);
#795=(
LENGTH_UNIT()
NAMED_UNIT(*)
SI_UNIT(.MILLI.,.METRE.)
);
#796=(
LENGTH_UNIT()
NAMED_UNIT(*)
SI_UNIT(.CENTI.,.METRE.)
);
#797=(
NAMED_UNIT(*)
PLANE_ANGLE_UNIT()
SI_UNIT($,.RADIAN.)
);
#798=(
NAMED_UNIT(*)
SI_UNIT($,.STERADIAN.)
SOLID_ANGLE_UNIT()
);
#799=SHAPE_DEFINITION_REPRESENTATION(#800,#801);
#800=PRODUCT_DEFINITION_SHAPE('',$,#803);
#801=SHAPE_REPRESENTATION('',(#483),#793);
#802=PRODUCT_DEFINITION_CONTEXT('part definition',#807,'design');
#803=PRODUCT_DEFINITION('CamLeftNCS','CamLeftNCS',#804,#802);
#804=PRODUCT_DEFINITION_FORMATION('',$,#809);
#805=PRODUCT_RELATED_PRODUCT_CATEGORY('CamLeftNCS','CamLeftNCS',(#809));
#806=APPLICATION_PROTOCOL_DEFINITION('international standard',
'automotive_design',2009,#807);
#807=APPLICATION_CONTEXT(
'Core Data for Automotive Mechanical Design Process');
#808=PRODUCT_CONTEXT('part definition',#807,'mechanical');
#809=PRODUCT('CamLeftNCS','CamLeftNCS',$,(#808));
#810=PRESENTATION_STYLE_ASSIGNMENT((#811));
#811=SURFACE_STYLE_USAGE(.BOTH.,#814);
#812=SURFACE_STYLE_RENDERING_WITH_PROPERTIES($,#818,(#813));
#813=SURFACE_STYLE_TRANSPARENT(0.);
#814=SURFACE_SIDE_STYLE('',(#815,#812));
#815=SURFACE_STYLE_FILL_AREA(#816);
#816=FILL_AREA_STYLE('',(#817));
#817=FILL_AREA_STYLE_COLOUR('',#818);
#818=COLOUR_RGB('',0.749019607843137,0.749019607843137,0.749019607843137);
ENDSEC;
END-ISO-10303-21;
